<svg width="320" height="320" viewBox="0 0 320 320" fill="none" xmlns="http://www.w3.org/2000/svg">
  <defs>
    <linearGradient id="bg" x1="0" y1="0" x2="1" y2="1">
      <stop offset="0%" stop-color="#0EA5E9" />
      <stop offset="55%" stop-color="#6366F1" />
      <stop offset="100%" stop-color="#1E1B4B" />
    </linearGradient>
    <linearGradient id="ring" x1="0" y1="0" x2="0" y2="1">
      <stop offset="0%" stop-color="#F8FAFC" stop-opacity="0.9" />
      <stop offset="100%" stop-color="#38BDF8" stop-opacity="0.5" />
    </linearGradient>
  </defs>
  <rect width="320" height="320" rx="32" fill="#020617" />
  <circle cx="160" cy="130" r="96" fill="url(#bg)" opacity="0.95" />
  <circle cx="160" cy="130" r="118" stroke="url(#ring)" stroke-width="2" opacity="0.7" />
  <path
    d="M90 230C90 188 124 154 166 154C208 154 242 188 242 230C242 252.643 223.643 271 201 271H131C108.356 271 90 252.643 90 230Z"
    fill="#0F172A"
    opacity="0.9"
  />
  <path
    d="M124 124L140 176L160 110L180 176L196 124"
    stroke="#F8FAFC"
    stroke-width="14"
    stroke-linecap="round"
    stroke-linejoin="round"
  />
  <circle cx="130" cy="106" r="10" fill="#F8FAFC" />
  <circle cx="190" cy="106" r="10" fill="#F8FAFC" />
  <circle cx="160" cy="138" r="52" stroke="#F1F5F9" stroke-width="4" opacity="0.6" />
</svg>
